<svg xmlns="http://www.w3.org/2000/svg" width="994" height="575" fill="none"><g opacity=".05"><path fill="#fff" stroke="#fff" stroke-width=".5" d="M359.582 466.37c1.557-1.534 3.391-2.712 5.243-3.902 1.133-.727 2.272-1.459 3.36-2.28 2.933-2.3 2.297-5.112 1.63-8.056-.229-1.014-.462-2.044-.554-3.074m-9.679 17.312 36.206-33.696c-2.868-.309-4.302-2.473-3.943-4.947.358-2.782-3.585-3.709-5.736-2.782m-26.527 41.425c-2.868 3.092-4.302 6.492-5.736 10.202l5.736-10.202Zm9.679-17.312c-.359-3.4 0-6.801 1.434-9.892m-1.434 9.892-.249.027v-.002m.249-.025-.249.023v.002m1.683-9.917c2.509-6.492 8.245-11.439 15.414-14.221m-15.414 14.221-.227-.105-.003.007m.23.098-.233-.09.003-.008m15.644-14.123-.09-.233-.004.002m.094.231-.099-.23.005-.001m0 0c1.141-.491 2.73-.486 3.993-.002.635.243 1.205.615 1.593 1.125.393.516.59 1.161.492 1.922l-.001.004c-.171 1.179.087 2.269.714 3.098.626.827 1.635 1.416 3.009 1.564l.009.001c1 .144 2.107-.214 3.271-.716.338-.146.681-.304 1.027-.464.813-.375 1.634-.753 2.402-.975m-16.509-5.557c-7.213 2.8-13.009 7.785-15.55 14.354m32.059-8.797-34.491 29.719c.952-.747 1.503-1.54 1.799-2.365.297-.828.343-1.706.255-2.631-.085-.907-.297-1.843-.517-2.814l-.015-.067c-.224-.987-.451-2.007-.543-3.03m33.512-18.812c1.841-.633 4.058-.637 5.918.322a6.35 6.35 0 0 1 1.384.839c.155.12.294.233.427.341.207.169.396.323.599.463.317.219.627.371.995.422.368.051.817.003 1.414-.217a23.059 23.059 0 0 0 1.484-.719l.144-.074c.424-.22.845-.438 1.274-.632.963-.435 1.984-.756 3.285-.756 2.91 0 5.093.629 7.614 1.561l.013.004v.001c.122.052.256.111.4.175.713.313 1.675.735 2.669 1.053.596.19 1.195.34 1.751.405.557.065 1.053.043 1.452-.094.41-.142.586-.318.66-.484.076-.172.071-.393-.012-.679-.083-.285-.23-.594-.389-.928l-.005-.011c-.152-.317-.314-.657-.41-.982l-.534-1.382-.537-1.391-.003-.008c-.806-2.317-1.567-4.706-2.336-7.125-2.322-7.297-4.73-14.868-8.755-21.579l-.002-.003c-1.238-2.135-2.833-3.894-4.574-5.588a121.23 121.23 0 0 0-2.082-1.963c-1.114-1.033-2.25-2.088-3.345-3.221l-.002-.001c-2.796-2.948-3.479-5.685-4.281-8.901-.139-.557-.281-1.128-.439-1.718l-.002-.008c-.685-2.953-3.429-4.537-6.749-5.852a82.343 82.343 0 0 0-2.537-.943l-.159-.057c-.805-.289-1.613-.578-2.4-.883-1.673-.649-3.265-1.373-4.547-2.32-3.654-2.522-5.121-5.999-5.123-9.777-.144-1.989-.172-3.978-.201-5.979-.007-.494-.014-.989-.023-1.484-.045-2.51-.134-5.048-.491-7.661v-.002c-.3-2.331-.854-4.443-1.452-6.723-.11-.42-.222-.846-.334-1.28-.054-.189-.102-.37-.146-.534a29.704 29.704 0 0 0-.077-.287 4.203 4.203 0 0 0-.21-.609c-.154-.33-.38-.601-.871-.885-.138-.057-.344-.092-.607-.105a7.971 7.971 0 0 0-.879.014c-.259.016-.517.039-.76.06l-.141.012a9.375 9.375 0 0 1-.728.044h-.018c-4.364-.314-8.012-2.197-10.566-5.341-.596-.643-1.132-1.391-1.67-2.143l-.36-.502c-.671-.925-1.374-1.832-2.246-2.585l-.009-.008-.008-.008c-.904-.935-1.483-1.417-2.072-1.553-.571-.131-1.213.053-2.282.668-3.625 2.187-7.659 3.15-11.704 1.247-2.006-.944-3.642-2.278-5.128-3.677-.6-.563-1.169-1.132-1.729-1.69-.841-.84-1.66-1.656-2.52-2.399-2.552-2.2-5.1-3.41-7.941-4.759-.316-.15-.637-.302-.962-.458-2.871-1.238-5.854-2.717-8.211-4.672-2.355-1.953-4.101-4.393-4.477-7.554a.806.806 0 0 1-.038-.422.711.711 0 0 1 .211-.381c.206-.199.521-.295.864-.316.694-.043 1.645.212 2.577.855l.04.028.027.042c2.463 3.792 6.518 5.855 11.031 7.435 1.716.601 3.489 1.129 5.26 1.657.558.165 1.115.331 1.67.499 2.314.701 4.589 1.439 6.665 2.373l58.256 121.793Zm-32.059 8.797c-1.454 3.139-1.814 6.583-1.453 10.015m39.323-18.264c-1.792-.928-3.943-.928-5.736-.309l24.377 1.545c-2.51-.927-4.661-1.545-7.528-1.545-1.819 0-3.073.649-4.445 1.36-.52.27-1.058.549-1.649.804-1.644.607-2.365.021-3.272-.717-.477-.388-1.005-.818-1.747-1.138ZM418.62 513.362c0-7.922-.363-15.843-1.088-23.764.939.854 1.878 1.723 2.817 2.614l.009.008c.78.672 2.016.991 3.183.91 1.167-.08 2.338-.567 2.932-1.592l.003-.005c2.709-4.672 5.421-9.35 7.825-14.031 1.365.557 2.874.867 4.503.867 2.389 0 4.313-.794 6.119-1.728.459-.238.908-.483 1.355-.726 1.321-.721 2.617-1.429 4.07-1.885 3.736-1.12 7.622-1.216 11.561-1.313l1.098-.028c4.302-.116 8.645-.348 12.815-2.067l.008-.004c6.898-3.131 10.919-10.033 9.822-16.653l-.001-.008c-1.257-6.23-6.81-10.562-13.386-12.06-.022-1.06.276-2.071.817-3.032.898-1.595 2.465-3.057 4.355-4.361 3.778-2.607 8.767-4.529 11.989-5.61 8.934-2.773 18.223-4.005 27.509-3.389 1.222.081 2.167-.263 2.808-.858.639-.594.954-1.416.954-2.251 0-1.679-1.269-3.409-3.728-3.573-12.587-.93-24.814 1.241-35.961 5.892-4.496 1.862-9.462 4.661-12.812 8.214-3.356 3.559-5.118 7.911-3.096 12.825h-.001l.005.01c.374.807.85 1.387 1.478 1.804.623.413 1.378.653 2.291.811l.015.002.014.001c5.648.304 10.133 4.55 9.445 9.298v.004c-.347 2.689-1.902 4.561-4.048 5.846-2.153 1.288-4.892 1.977-7.563 2.284h-.002c-2.145.265-4.356.359-6.588.454l-1.1.047c-2.597.116-5.21.271-7.736.737-2.173.313-4.343.938-6.511 1.872h-.001l-.011.006c-.463.228-.964.519-1.479.819l-.584.338c-.726.414-1.472.81-2.212 1.073-.74.262-1.455.385-2.125.269-.663-.114-1.306-.465-1.899-1.196l-.001-.002c-1.906-2.3-5.701-1.968-7.22.653l-.008.013-.006.014c-1.906 4.462-4.228 8.925-6.807 13.254-.586-.533-1.171-1.063-1.756-1.593l-.001-.001c-1.793-1.623-3.583-3.244-5.373-4.942l-.009-.008c-1.159-1-2.961-1.15-4.409-.666-1.453.484-2.652 1.648-2.455 3.354 1.077 11.452 3.23 22.591 5.739 33.722.108.549.456.935.898 1.162.439.225.973.296 1.484.233 1.01-.124 2.056-.807 2.056-2.064Z"/><path fill="#fff" stroke="#fff" stroke-width=".5" d="m532.206 439.039-.009.008a41.061 41.061 0 0 0-1.237-.129l-.321-.028.052.318.062.372c-1.06.327-1.815.883-2.273 1.557-.476.7-.622 1.511-.476 2.288.292 1.557 1.742 2.939 3.988 3.102 6.051.614 11.576 2.764 17.037 5.196 1.145.51 2.288 1.032 3.433 1.556 4.304 1.968 8.63 3.947 13.177 5.295h.002c7.031 2.021 14.146 2.019 21.27 1.865l1.767-.041c6.546-.153 13.095-.307 19.643.964h.001c3.218.617 6.783 1.54 9.627 2.766l.008.004.009.003c.892.308 1.695.615 2.502.925h.001c.793.304 1.589.609 2.472.915.098.08.229.172.38.266-.18.08-.363.166-.543.254l-.473.233c-.554.275-1.059.525-1.458.64l-.016.005-.014.006c-.338.145-.7.293-1.076.445-1.183.481-2.499 1.016-3.604 1.727-2.033.878-4.069 1.911-5.97 2.876-.782.397-1.541.782-2.267 1.14l-.009.005c-10.768 5.881-21.18 13.002-30.158 21.053-.46.397-.945.805-1.445 1.226-1.436 1.208-2.99 2.515-4.392 3.925-1.893 1.904-3.539 4.026-4.274 6.402l-.001.004c-.555 1.913-.372 3.992.559 5.678.934 1.692 2.617 2.976 5.025 3.295l.003.001c2.565.316 5.208-.317 7.852-1.09.497-.146.993-.295 1.489-.445 2.164-.654 4.326-1.308 6.491-1.556l.002-.001c2.485-.306 5.263.011 6.975 1.487.874.754 1.577 1.661 2.296 2.591l.007.01c.712.921 1.442 1.865 2.358 2.655l.01.008.011.008c1.805 1.246 3.65 2.208 5.878 2.208.916 0 1.805-.118 2.64-.239l.241-.035c.749-.109 1.447-.211 2.099-.228.718-.019 1.355.067 1.915.346.556.277 1.059.756 1.487 1.569l.005.01.007.01c1.584 2.428 2.383 5.4 2.739 8.471.356 3.069.267 6.22.088 8.997-.148 2.106-.48 4.278-.817 6.479-.069.45-.138.902-.205 1.354-.398 2.658-.748 5.341-.726 7.952.023 2.612.419 5.162 1.519 7.551 1.101 2.391 2.901 4.608 5.713 6.563 9.787 6.877 23.52 4.986 33.246-.606 4.901-2.735 8.883-6.269 12.842-9.782.987-.876 1.973-1.751 2.971-2.612v.001l.007-.006c3.019-2.791 6.158-5.347 9.277-7.889 2.063-1.68 4.117-3.353 6.122-5.083.588-.425.893-.988.957-1.58.063-.589-.115-1.188-.456-1.693-.684-1.01-2.049-1.68-3.596-1.181-5.965 1.715-10.657 5.065-14.969 8.862-1.725 1.519-3.393 3.112-5.057 4.701-.415.397-.83.794-1.246 1.189-2.083 1.979-4.182 3.924-6.413 5.694-3.74 2.919-9.262 5.912-14.862 7.062-5.598 1.15-11.229.451-15.27-3.943v-.001c-2.092-2.255-2.712-5.042-2.712-7.984 0-2.16.333-4.374.653-6.506.117-.781.233-1.551.33-2.303 1.078-5.58 1.44-10.866.358-16.467-.716-4.629-1.799-10.276-5.811-14.051l-.008-.007c-1.475-1.272-3.672-2.217-5.863-2.532l-.012-.001c-.833-.08-1.66-.019-2.463.078-.35.042-.687.091-1.019.138-.445.064-.879.126-1.317.171-1.498.152-2.84.068-4.013-.937-.707-.762-1.326-1.525-1.951-2.296l-.002-.002c-.626-.771-1.258-1.55-1.981-2.329l-.009-.01-.011-.009c-1.837-1.585-4.393-2.524-6.914-3.145l-.007-.002-.008-.001c-5.073-.937-10.136.002-15.157 1.239l-.004.001h-.003c-.923.199-1.857.401-2.796.688.224-.35.415-.679.554-.918 1.056-1.212 2.115-2.125 3.544-3.357l.007-.007a230.368 230.368 0 0 1 13.603-11.731c9.66-7.096 20.397-12.961 31.857-18.211l.002-.001c1.978-.93 4.262-2.264 5.599-3.894.671-.818 1.118-1.729 1.149-2.715.03-.991-.362-2.017-1.29-3.057-1.655-1.903-4.482-3.389-7.536-4.551-3.063-1.165-6.39-2.018-9.082-2.637-7.189-1.86-14.737-2.789-22.285-2.789-1.977 0-3.953.077-5.925.159l-.393.017c-1.841.077-3.678.153-5.514.171-3.932.039-7.85-.193-11.761-1.266l-.004-.001c-5.507-1.412-10.515-3.679-15.515-5.942a472.74 472.74 0 0 0-2.997-1.348c-3.648-1.62-7.338-3.145-11.249-4.232 1.016-2.247.993-4.846-.562-7.23l-.001-.002a7.43 7.43 0 0 0-.273-.385c5.182.642 10.363 1.245 15.457 1.7 3.613.311 7.351-.229 9.835-1.816 1.248-.797 2.188-1.864 2.624-3.226.436-1.362.358-2.987-.374-4.881-1.285-3.325-4.034-5.684-7.389-7.209-3.355-1.525-7.335-2.225-11.127-2.225-8.083 0-16.171 1.046-24.241 2.09-2.686.348-5.369.695-8.05 1.003l-.043.005-.039.019c-1.372.676-2.028 2.338-1.886 3.766.072.721.348 1.41.867 1.9.523.495 1.269.764 2.226.681l1.795-.154c6.622-.569 13.501-1.16 20.08-2.01l.478-.049c2.934-.299 6.219-.634 9.382-.453 3.336.192 6.502.958 8.954 2.921v.001l.01.007a7.699 7.699 0 0 1 1.361 1.234c.365.432.589.835.645 1.157a.645.645 0 0 1-.033.383.618.618 0 0 1-.284.282c-.32.176-.908.278-1.88.202-1.605-.154-3.212-.385-4.825-.617h-.003c-1.61-.232-3.227-.464-4.845-.619-3.763-.464-7.615-.927-11.467-1.391h-.002c-3.853-.464-7.706-.927-11.47-1.391-1.3-.16-2.701.078-3.742.69-1.049.616-1.75 1.631-1.555 2.99.373 3.52 2.612 5.743 6.243 7.309l.014.006.016.004c.533.154 3.473 1.076 5.559 2.109.521.258.98.52 1.334.773.362.26.579.49.66.674.037.085.04.148.027.2-.013.053-.051.122-.149.204Z"/><path fill="#fff" stroke="#fff" stroke-width=".5" d="m687.367 545.109-.02.011c-.986.51-2.176.344-2.928-.348-.772-.71-1.034-1.921-.277-3.39l.011-.02.014-.018c2.931-3.792 6.871-4.808 11.063-5.197 1.248-.116 2.535-.177 3.825-.238.863-.041 1.728-.082 2.584-.139 2.149-.145 4.277-.394 6.31-1.004 4.236-1.37 7.333-4.34 10.427-7.472l.573-.582c2.895-2.94 5.849-5.94 9.764-7.702l.01-.004c4.698-1.87 9.762-2.495 14.828-1.56 2.543.314 5.076 1.252 7.231 2.181l.013.006.012.007c1.091.627 2.089 1.409 3.07 2.179l.007.005c.987.774 1.957 1.534 3.013 2.141.842.435 1.98.607 3.293.588 1.311-.019 2.773-.228 4.243-.536 2.94-.614 5.884-1.614 7.677-2.233l.008-.002c2.487-.766 4.323-1.754 5.581-3.101 1.254-1.341 1.954-3.061 2.129-5.336l.001-.004c.344-3.565 1.679-7.76 5.001-10.071-.847-.164-1.702-.166-2.584-.166-2.144.308-4.269.615-6.392 1.224-2.478.917-4.601 2.138-6.726 3.971l-.013.011-.014.009c-.354.229-.709.478-1.073.734l-.053.037c-.347.244-.702.494-1.068.735-.77.507-1.596.984-2.521 1.303-3.722 1.284-7.053-.651-8.887-3.181l-.003-.004c-.279-.401-.51-.84-.727-1.253l-.001-.001c-.22-.419-.425-.809-.66-1.14-.233-.33-.486-.586-.791-.744-.3-.156-.672-.229-1.165-.158-.997.143-1.935.794-2.776 1.595-.622.594-1.167 1.245-1.632 1.8-.162.194-.315.376-.458.54l-.006.008-.008.008c-2.897 2.81-6.535 5.011-11.27 5.325h-.001c-9.806.627-17.406-6.263-22.783-12.135-6.475-6.826-11.149-14.579-14.742-22.635-2.159-4.655-3.6-9.314-4.321-14.284a172.05 172.05 0 0 0-.238-1.299c-.3-1.627-.617-3.341-.795-5.053-.225-2.177-.228-4.374.32-6.424.554-2.383 1.847-4.049 3.535-5.427 1.391-1.134 3.062-2.081 4.809-3.071.363-.205.728-.412 1.095-.623l.007-.004c2.327-1.235 4.654-2.547 6.985-3.861v-.001c2.329-1.312 4.66-2.627 6.992-3.865 4.839-2.782 9.678-5.487 14.516-8.19l.001-.001c4.839-2.705 9.677-5.409 14.514-8.19.894-.534 1.778-1.081 2.66-1.627 3.692-2.286 7.364-4.56 11.736-5.817l.01-.003.023-.005c2.488-.613 5.03-1.24 7.58-.929 1.453.001 2.812.236 4.106.467l.121.022c1.261.225 2.454.438 3.644.438 2.278 0 4.479-.756 6.715-1.681.52-.215 1.043-.44 1.568-.666 1.721-.74 3.474-1.495 5.275-1.973l.009-.002.01-.002c4.479-.828 7.559-.191 11.414.605.511.106 1.035.214 1.578.322 2.066.295 3.702-.369 5.143-1.424 1.057-.773 1.991-1.741 2.91-2.693.35-.363.698-.723 1.05-1.07l.006-.006.006-.005.015-.013c2.5-2.156 5.037-4.344 8.304-5.596l.008-.003.008-.002c2.225-.686 4.519-.95 6.795-1.212l.956-.112c2.596-.308 5.162-.692 7.634-1.757 1.96-.922 3.832-1.998 5.714-3.08l.005-.003c1.879-1.08 3.768-2.166 5.749-3.098l.001-.001c4.696-2.18 9.398-3.117 14.46-2.805l.004.001c.692.054 1.474.146 2.306.244.359.043.728.086 1.102.128 1.247.14 2.571.265 3.88.284 2.63.038 5.149-.35 6.868-1.833 1.013-.873 1.445-2.044 1.665-3.331.11-.644.165-1.309.215-1.976l.014-.186c.045-.602.09-1.203.173-1.773l.001-.005.538-3.246.537-3.246.002-.008.001-.008c1.078-4.648 2.517-9.305 4.68-13.656M687.367 545.109l195.952-188.481M687.367 545.109l.018-.014c1.732-1.344 3.73-1.725 5.852-1.725 1.061 0 2.148.095 3.245.211l.844.092c.815.09 1.632.18 2.435.237 4.307.31 8.656.314 12.654-1.252m-25.048 2.451 25.048-2.451m170.68-186.14v-.001l.224.111m-.224-.11-.001.002.225.108m-.224-.11c1.805-3.737 4.35-7.197 8.729-9.084l.01-.005.01-.003c1.173-.389 2.322-.7 3.437-.995l.369-.097c.987-.26 1.944-.513 2.875-.803 2.089-.652 4.025-1.489 5.781-3.004l.01-.008h.001c.951-.734 1.899-1.515 2.865-2.309a157.09 157.09 0 0 1 2.347-1.906c1.791-1.419 3.653-2.773 5.623-3.808 3.952-2.076 8.339-2.867 13.446-.35l.008.004c.763.411 1.219.962 1.398 1.569.179.605.073 1.233-.221 1.783-.585 1.093-1.936 1.919-3.473 1.754l-.009-.001c-3.14-.452-5.855.672-8.292 2.354-1.682 1.16-3.206 2.566-4.643 3.89a79.169 79.169 0 0 1-1.922 1.735l-.009.007c-4.338 3.429-8.316 4.986-13.708 6.536-3.149.905-5.073 2.863-6.393 5.215-1.185 2.112-1.877 4.53-2.525 6.794l-.231.805-.002.007c-1.418 4.402-1.933 8.605-2.447 12.794-.132 1.079-.264 2.158-.411 3.238l-.002.01c-.914 5.205-4.126 8.128-8.361 9.659-4.217 1.525-9.456 1.677-14.483 1.367m20.447-37.038c1.792-3.709 4.302-7.11 8.604-8.965 1.293-.429 2.56-.763 3.791-1.087 3.202-.845 6.166-1.626 8.755-3.859.95-.733 1.908-1.521 2.879-2.319 5.989-4.927 12.502-10.284 21.139-6.028 2.868 1.546.717 4.946-2.151 4.637-5.447-.783-9.617 3.061-13.156 6.323a75.981 75.981 0 0 1-1.9 1.715c-4.301 3.4-8.245 4.946-13.622 6.492-6.107 1.755-7.718 7.388-9.089 12.18l-.231.804c-1.426 4.428-1.945 8.66-2.458 12.852-.132 1.076-.264 2.15-.41 3.223-1.792 10.202-12.547 11.439-22.584 10.821m-.014.249h.002l.012-.249m-.014.249c-6.395-.306-10.294.915-15.639 3.68-.431.247-.858.495-1.284.742-3.814 2.212-7.489 4.343-12.04 5.464-1.645.405-3.307.615-4.913.818-.852.108-1.689.213-2.5.345-2.36.384-4.551.994-6.473 2.501l-.009.007-.01.006c-1.408.911-2.555 2.051-3.723 3.213l-.008.008c-1.159 1.154-2.339 2.328-3.795 3.27-3.259 2.186-6.906 3.451-10.928 2.821-.798-.115-1.648-.314-2.515-.518-.316-.074-.634-.149-.954-.22-1.205-.27-2.438-.496-3.664-.496-1.754 0-3.506.632-5.098 1.207-.31.111-.614.221-.91.323-.523.205-1.047.416-1.573.628-3.417 1.376-6.924 2.788-10.702 2.788-1.447 0-2.779-.117-4.048-.253l-.94-.103c-.932-.104-1.832-.205-2.735-.263-2.392-.153-4.769 0-7.589 1.216-5.006 2.312-9.746 5.012-14.448 7.792-1.104.653-2.205 1.31-3.308 1.968-3.593 2.144-7.197 4.293-10.904 6.306a536.367 536.367 0 0 0-7.344 4.171l-.001.001c-2.419 1.39-4.839 2.782-7.35 4.173-1.462.841-3.093 1.648-4.742 2.464-.784.388-1.571.778-2.347 1.174-2.418 1.235-4.725 2.538-6.493 4.063-.748.645-1.177 1.588-1.379 2.728-.201 1.14-.17 2.456-.014 3.817.212 1.859.65 3.757 1.023 5.375.174.757.334 1.453.451 2.055 1.075 4.018 2.146 8.016 3.928 12.011l.001.003c3.57 8.313 9.284 16.321 16.428 22.79l.007.006h-.001c1.424 1.381 3.465 3.063 5.72 4.207 2.259 1.146 4.694 1.733 6.933.991l.009-.004v.001c2.072-.596 3.463-2.085 4.853-3.71l.334-.392c1.269-1.492 2.586-3.042 4.451-3.92 3.649-1.886 8.767-1.899 12.084.638 1.479.959 2.22 2.238 2.932 3.465l.008.015.034.058v.067c0-.003 0 .007.008.034l.008.025c.015.042.039.095.07.158.063.127.148.274.239.43l.002.005c.048.082.097.167.144.251l.16-.138c.946-1.599 2.964-2.927 5.104-3.965 2.167-1.052 4.511-1.829 6.131-2.295 3.979-1.247 8.315-1.558 12.647-.936 1.815.157 3.731.627 5.292 1.498 1.565.874 2.792 2.162 3.169 3.954.376 1.781-.098 3.238-.929 4.552-.613.968-1.432 1.876-2.249 2.781-.277.306-.553.612-.821.92l-.007.009v-.001c-1.56 1.645-1.998 3.437-2.31 5.318-.041.25-.08.502-.12.755-.255 1.644-.521 3.356-1.475 5.005-1.468 2.844-4.387 5.037-7.253 6.891l-.007.004c-3.618 2.184-7.592 3.428-11.906 4.358l-.007.002-.007.001c-.671.105-1.37.229-2.085.357-1.362.243-2.786.496-4.2.649-2.166.233-4.356.237-6.375-.396l-.004-.002c-2.159-.716-3.865-2.017-5.526-3.285l-.506-.385c-1.835-1.39-3.677-2.67-6.123-3.122l-.008-.002c-4.219-.909-8.453.3-12.001 2.44-2.451 1.644-4.585 3.6-6.722 5.557-.658.603-1.316 1.206-1.984 1.8-2.828 2.516-5.813 4.86-9.621 6.268m150.457-148.992h-.001l.015-.249m0 0c-6.453-.31-10.396.927-15.773 3.709l-1.288.745c-3.817 2.213-7.461 4.326-11.976 5.438-1.633.403-3.266.609-4.862.81-3.309.417-6.458.814-9.118 2.9-1.434.927-2.599 2.087-3.764 3.246-1.165 1.159-2.33 2.319-3.764 3.246-3.227 2.164-6.811 3.401-10.755 2.782-.786-.113-1.62-.308-2.484-.511-1.501-.352-3.093-.725-4.685-.725-1.802 0-3.604.651-5.195 1.225-.308.112-.608.22-.899.32-.528.207-1.057.42-1.586.633-3.42 1.377-6.877 2.768-10.603 2.768-1.79 0-3.406-.181-4.956-.354-3.416-.382-6.513-.729-10.458.972-6.198 2.864-11.985 6.316-17.785 9.776-3.593 2.143-7.191 4.289-10.893 6.3-2.51 1.391-4.929 2.782-7.349 4.173s-4.839 2.783-7.349 4.174c-1.455.837-3.075 1.638-4.72 2.452-3.217 1.592-6.53 3.231-8.902 5.276-2.714 2.341-1.369 8.183-.446 12.188.174.755.332 1.444.446 2.033 1.076 4.019 2.151 8.038 3.943 12.057 3.585 8.347 9.321 16.384 16.49 22.876 2.868 2.783 8.245 6.802 12.906 5.256 2.321-.667 3.807-2.415 5.303-4.174 1.276-1.501 2.56-3.01 4.375-3.864 3.585-1.855 8.604-1.855 11.83.618 1.434.928 2.151 2.164 2.868 3.401 0 .155.179.464.358.773.059.101.117.201.169.297l-49.549 38.425m50.097-38.568-.234.203-49.952 38.131c4.646-1.717 8.063-4.847 11.515-8.01 2.142-1.961 4.297-3.935 6.767-5.592 3.585-2.164 7.886-3.401 12.188-2.473 2.739.506 4.731 2.025 6.733 3.552 1.666 1.271 3.339 2.547 5.455 3.249 3.262 1.023 7.013.354 10.444-.258a103.74 103.74 0 0 1 2.103-.36c4.302-.928 8.245-2.164 11.83-4.328 2.868-1.855 5.735-4.019 7.169-6.802.932-1.606 1.191-3.27 1.447-4.917.336-2.157.667-4.284 2.497-6.212.275-.316.556-.628.836-.938 1.904-2.109 3.732-4.134 3.107-7.099-.717-3.401-4.66-4.947-8.245-5.256-4.302-.618-8.604-.309-12.547.928-3.226.927-9.32 3.091-11.113 6.182Z"/><path fill="#fff" stroke="#fff" stroke-width=".5" d="M991.101 237.377c.914-2.68.82-5.121.458-7.536-.127-.851-.289-1.705-.451-2.563-.067-.355-.135-.711-.2-1.067-.223-1.224-.423-2.469-.512-3.769v-.001c-.086-1.189.172-2.351.57-3.509.251-.732.551-1.443.852-2.158.181-.429.362-.859.533-1.295.902-2.295 1.483-4.646-.206-7.075l-.004-.005c-2.597-3.518-7.744-4.125-11.74-2.875-1.279.316-2.374.867-3.441 1.404l-.01.005c-1.078.542-2.13 1.07-3.353 1.372l-.008.002-.009.002c-1.385.448-2.395.367-3.27-.028-.892-.403-1.667-1.14-2.565-2.069-.288-.31-.572-.621-.855-.93-2.53-2.763-4.991-5.45-8.921-6.863-2.181-.783-4.356-1.095-6.515-1.289-.727-.065-1.449-.117-2.168-.168-1.427-.103-2.844-.205-4.268-.409-.34-.059-.681-.106-1.012-.153a25.46 25.46 0 0 1-.325-.046 13.893 13.893 0 0 1-1.243-.222c-.782-.188-1.442-.479-1.931-1.042-.5-.575-.846-1.457-1.16-2.425a49.88 49.88 0 0 1-.233-.739c-.223-.721-.447-1.444-.719-2.033l-.007-.014-.008-.013c-1.289-2.065-2.965-3.119-4.84-3.361-1.862-.241-3.886.322-5.882 1.416-1.54.736-2.994.666-4.427.216-1.219-.382-2.406-1.032-3.614-1.694l-.688-.374c-2.883-1.554-6.121-2.795-9.342-4.029l-.003-.002c-5.743-2.476-11.847-4.643-17.953-6.192l-.279-.08c-2.089-.602-4.596-1.324-6.985-1.474-2.494-.157-4.915.308-6.601 2.237a1.66 1.66 0 0 0-.31.419c-.096.174-.19.381-.282.605-.165.405-.329.884-.491 1.356l-.051.15c-.18.523-.356 1.025-.53 1.414a3.18 3.18 0 0 1-.247.467c-.083.122-.139.164-.161.173-.124.053-.311.075-.569.051a4.707 4.707 0 0 1-.895-.196c-.676-.207-1.47-.548-2.272-.933a66.208 66.208 0 0 1-2.299-1.174l-.079-.042c-.649-.343-1.207-.638-1.563-.792-4.99-2.768-9.271-6.152-13.2-9.848-2.128-2.142-3.728-4.592-5.341-7.105l-.173-.268c-1.554-2.421-3.138-4.89-5.228-7.143-4.025-4.73-9.868-5.34-15.972-5.03h-.01c-6.834.621-13.667 2.171-20.142 4.653-3.24 1.242-6.118 2.793-8.981 4.336l-.35.154c-.892.395-2.548 1.128-4.037 1.49-.868.212-1.628.282-2.135.125-.244-.075-.415-.199-.522-.375-.108-.179-.168-.443-.127-.833l.001-.004c.096-1.075-.242-1.939-.847-2.572-.6-.627-1.449-1.013-2.361-1.174-1.811-.321-3.975.231-5.123 1.712-.383.461-.969.66-1.704.66-.738 0-1.592-.202-2.454-.507-1.72-.609-3.402-1.601-4.113-2.06l-.002-.001-.013-.009c-3.215-2.156-6.473-4.342-10.461-5.28l-.008-.002c-2.377-.473-4.387-.235-6.293.235-.9.222-1.78.496-2.659.77l-.145.045c-.93.29-1.863.577-2.839.807a15.698 15.698 0 0 1-11.643-1.826l-.005-.002a12.416 12.416 0 0 1-5.974-8.18c-.347-1.801-.088-3.459.312-5.108.108-.447.228-.896.349-1.348.32-1.2.645-2.419.777-3.67v-.001c.366-3.633-1.01-6.859-2.579-10.029a169.54 169.54 0 0 0-.641-1.279c-1.388-2.753-2.775-5.503-3.234-8.54v-.001c-.193-1.244-.898-2.067-1.833-2.506-.924-.435-2.058-.491-3.129-.25-2.124.478-4.165 2.181-3.777 4.688v.002c.365 2.204 1.276 4.242 2.31 6.22.349.666.71 1.324 1.07 1.979.714 1.299 1.422 2.588 2.015 3.919l.005.009c1.044 2.1 1.047 4.051.695 6.028-.168.941-.416 1.882-.671 2.852l-.042.162c-.269 1.023-.54 2.077-.722 3.172l-.001.01-.001.009c-.729 8.48 5.096 16.611 14.147 19.734 4.345 1.561 9.046 1.871 13.737 1.249 1.283-.159 2.56-.631 3.803-1.09l.015-.006c1.256-.464 2.477-.914 3.693-1.066 2.398.004 4.273 1.118 6.143 2.228.293.174.587.348.882.518 3.417 2.171 7.574 4.2 11.657 4.748 1.817.244 3.622.194 5.34-.268 1.503 1.466 3.543 2.512 5.663 2.97 5.596 1.206 10.514-1.632 14.676-4.034l.556-.321c6.063-3.383 12.842-5.538 19.981-6.461.335-.037.677-.077 1.025-.117 1.156-.135 2.373-.277 3.567-.307 1.554-.038 3.03.117 4.23.709l.012.005c1.371.591 2.323 1.629 3.116 2.844.396.608.75 1.256 1.097 1.912l.214.407c.273.519.546 1.039.833 1.534l.005.009c5.761 9.004 14.039 16.452 24.111 21.726 1.974 1.083 4.415 2.332 6.998 3.035 2.585.704 5.337.869 7.917-.243 2.09-.902 2.888-2.65 3.557-4.115l.15-.328a8.04 8.04 0 0 0 .391-.772c.097-.207.16-.324.239-.406.069-.071.165-.13.359-.17.203-.043.495-.063.94-.063.849 0 1.889.295 2.963.681.511.184 1.024.386 1.52.581l.063.025c.515.203 1.013.398 1.467.555l.006.001c6.802 2.162 13.246 4.632 19.693 7.411 1.185.511 2.412 1.145 3.684 1.802l.193.099c1.338.69 2.723 1.4 4.145 2.003 2.841 1.205 5.855 2 8.975 1.367l.009-.002.01-.003c.544-.156 1.269-.39 1.951-.665.485-.195.965-.417 1.342-.652.389 1.87 1.468 3.714 2.543 4.951l.006.006c2.936 3.165 7.323 4.097 11.636 4.407h.002c.414.028.827.053 1.239.078 4.252.258 8.322.505 11.519 3.263.794.684 1.502 1.447 2.194 2.232.197.223.393.449.59.675.491.565.985 1.133 1.5 1.674 1.448 1.522 3.098 2.871 5.488 3.507 2.933.947 5.319.548 7.634-.235.828-.28 1.653-.612 2.488-.947.325-.13.651-.261.979-.39 1.178-.462 2.397-.901 3.723-1.206l.009-.003.01-.003a6.722 6.722 0 0 1 1.177-.275c.308-.036.518-.019.656.024.13.041.192.103.226.169.038.076.057.19.037.356-.039.338-.221.786-.478 1.287-.203.396-.442.805-.669 1.193l-.165.283-.01.017-.007.018c-1.088 2.816-1.454 5.332-1.09 8.16l.002.011c.125.722.26 1.429.392 2.122.438 2.298.848 4.451.814 6.565-.044 2.726-.831 5.372-3.297 8.106l-.003.003c-2.111 2.427-4.931 3.952-8.125 4.87l-.008.003c-.866.28-1.718.499-2.559.716-.553.143-1.101.284-1.645.441-1.351.388-2.637.86-3.746 1.656-2.199 1.424-3.678 3.567-4.049 5.808-.374 2.254.378 4.586 2.601 6.342l-.001.001.01.006c2.034 1.462 4.689 2.109 7.047 2.684l.567.138.007.002 3.718.802-.999.021-.543.011c-1.114.024-2.146.062-2.89.222-3.269.627-6.192 2.196-8.028 4.413-4.025 4.734-3.641 10.714-2.201 15.993l.001.003c.391 1.349 1.559 2.171 2.876 2.455 1.316.284 2.824.043 3.963-.775l.009-.007.008-.007c.489-.422.896-.481 1.233-.38.359.107.698.412.999.837.296.42.533.93.696 1.393.165.47.244.863.244 1.052v.024l.004.023c.174.9.175 1.88.175 2.89v.013c0 .993 0 2.014.182 2.963l.025.194c.347 2.705.742 5.78 2.892 7.96.064.099.16.205.265.307.12.117.267.245.43.378.326.266.723.56 1.106.832.383.272.755.525 1.031.709l.178.119-.203.175-1.025.884-1.747 1.507-.012.01-.011.012c-2.476 2.745-3.237 6.369-3.929 9.663l-.073.345-.003.013-.001.012c-.359 3.404-.715 6.773-1.777 9.83-.876 2.111-2.089 3.371-3.681 4.113-1.607.749-3.622.982-6.123.982-1.796 0-3.584-.009-5.365-.018-8.872-.043-17.596-.085-26.568.947l-.021.002-.019.006c-1.667.479-2.823 1.528-3.17 2.556-.176.52-.148 1.053.163 1.483.307.424.855.695 1.612.777 7.182.929 14.004 1.239 21.18 1.239 1.516 0 3.123.077 4.781.164l.558.029c1.481.078 2.997.159 4.513.193 3.413.078 6.851-.076 9.937-1.015l.006-.002c2.817-.941 4.828-2.337 6.289-4.036 1.459-1.697 2.357-3.684 2.969-5.793.61-2.106.937-4.345 1.245-6.546l.045-.322c.292-2.092.578-4.142 1.083-6.034.345-.961.95-1.86 1.674-2.747.469-.573.976-1.13 1.49-1.693.287-.315.577-.632.862-.956 1.569-1.777 2.984-3.704 2.796-6.136l-.001-.008-.001-.008c-.186-1.286-.656-2.182-1.317-2.914-.614-.682-1.392-1.217-2.224-1.79l-.147-.102c-1.038-.746-1.632-1.557-1.971-2.472-.343-.923-.433-1.969-.433-3.197v-.042c0-4.603 0-9.987-5.132-13.152a10.638 10.638 0 0 0-5.932-1.858c-.056-1.397.114-2.789.648-4.016l.001-.002c.694-1.645 1.634-2.522 2.868-3.035 1.255-.523 2.826-.677 4.805-.832 2.873-.155 6.044-.543 8.639-1.642 2.604-1.103 4.654-2.936 5.212-5.981m2.859-26.553c-1.451 4.38-4.351 8.129-8.328 10.938-1.827 1.573-4.012 2.511-6.52 3.438l-.005.002c-.462.159-1.102.316-1.805.485l-.237.056c-.642.154-1.333.319-2.005.507-.757.211-1.482.448-2.08.725-.6.277-1.04.58-1.272.907-.151.265-.18.48-.143.659.038.185.155.368.361.551.421.371 1.147.678 2.015.927 1.309.376 2.838.598 3.904.752.344.049.64.092.864.131l.014.002.013.004c3.212.923 6.425 1.54 9.651 2.158 1.146.166 1.931.751 2.373 1.556.438.797.528 1.786.341 2.755m2.859-26.553-.001.001-.236-.08.237.078v.001Zm-2.859 26.553v.002l-.246-.048.246.045v.001Z"/><path fill="#fff" stroke="#fff" stroke-width=".5" d="m725.078 112.226-.006.009c-1.166 1.676-3.206 1.748-4.594.881-.698-.436-1.248-1.116-1.45-1.966-.203-.852-.049-1.846.606-2.897.518-.894.649-1.587.556-2.143-.094-.555-.419-1.019-.908-1.441-.492-.424-1.131-.79-1.819-1.152-.17-.09-.345-.179-.52-.27a23.02 23.02 0 0 1-1.528-.835l-.007-.004-.007-.006c-2.202-1.582-3.314-3.493-3.684-6.023-.353-1.21-.774-1.89-1.437-2.226-.68-.345-1.68-.363-3.287-.056-1.416.306-2.746.764-4.091 1.228l-.006.003c-1.34.462-2.697.93-4.145 1.242l-.013.003-.013.001c-2.885.311-5.792.314-8.707-.629l-.01-.003c-1.27-.47-2.448-1.094-3.608-1.71l-.007-.004c-1.165-.618-2.313-1.227-3.546-1.683-5.957-1.71-12.227-.493-18.3.685-.426.083-.852.166-1.276.247-3.021.965-6.094-1.636-5.323-4.632 2.494-10.143 1.425-20.278-3.918-29.801a3.82 3.82 0 0 1-.239-3.31c.435-1.083 1.399-1.988 2.91-2.314l.938-.219c1.704-.395 3.489-.809 5.179-1.36 2.003-.652 3.849-1.49 5.246-2.695 1.224-1.055 2.079-2.397 2.292-3.714.209-1.3-.203-2.6-1.562-3.625l-.007-.005-.006-.006c-1.053-.908-2.376-1.67-3.767-2.444l-.374-.207c-1.268-.704-2.574-1.428-3.731-2.283l-.007-.006-.007-.006c-2.524-2.176-4.697-4.67-6.149-7.486-1.343-2.202-2.389-4.582-3.425-6.94a169.07 169.07 0 0 0-1.065-2.392c-1.431-3.122-3.028-6.101-5.503-8.541-1.759-1.668-4.671-3.266-7.531-3.76-2.856-.492-5.595.12-7.135 2.778-.778 1.341-2.317 1.903-3.808 1.863-1.489-.04-3.012-.68-3.787-1.85l-.004-.008c-1.532-2.495-4.439-2.97-7.641-2.55-3.188.42-6.562 1.72-8.894 2.649-6.447 3.088-12.968 5.907-20.584 4.343m139.709 97.27L451.707 86.124c.424 1.315.707 2.837 1.002 4.419.952 5.114 2.022 10.858 8.319 12.275l-.057.243h.001c2.378.552 4.218.263 5.63-.595 1.407-.854 2.353-2.25 2.992-3.845 1.275-3.18 1.363-7.245 1.363-9.715 0-10.05.09-21.382 2.726-31.858 2.495-9.921 7.268-19.06 16.398-25.608 4.999 1.34 9.614.57 14.169-.76 1.611-.472 3.227-1.017 4.849-1.564 1.107-.374 2.216-.748 3.328-1.1 2.755-.872 5.559-1.62 8.491-1.926 3.336-.303 6.33.83 9.376 2.144.32.138.64.278.961.418 2.725 1.19 5.524 2.412 8.614 2.693 6.151.624 12.295-.936 17.352-3.74l.006-.003c5.135-3.045 7.155-6.838 9.529-11.295.311-.583.628-1.179.959-1.785l.002-.003c.867-1.646 2.002-2.505 3.302-2.87 1.313-.37 2.821-.245 4.44.137 1.557.368 3.188.966 4.815 1.563l.192.07c1.682.618 3.358 1.224 4.903 1.537m139.709 97.27.005-.009c1.453-2.505 2.199-5.047 1.46-7.916l-.002-.007c-.371-1.28-1.11-2.548-2.202-3.804-.567-.652-1.315-1.133-2.033-1.558l-.385-.226c-.586-.342-1.127-.658-1.551-1.024-.462-.398-.633-1.01-.722-1.734a18.214 18.214 0 0 1-.066-.706l-.034-.393a5.784 5.784 0 0 0-.177-1.066c-.37-1.277-1.111-2.558-2.227-3.52-2.579-2.224-6.241-2.846-9.506-2.533-1.998.157-3.809.626-5.607 1.169-.486.147-.97.298-1.456.45-1.317.413-2.651.831-4.083 1.168-2.062.444-3.877-.217-5.699-1.175-.534-.281-1.055-.58-1.582-.882-.383-.219-.768-.44-1.164-.657-.929-.51-1.887-.983-2.896-1.3-5.798-1.818-12.163-1.481-18.239-.567m58.166 26.29-58.166-26.29m-81.543-70.98.05-.245-.049.245h-.001Zm81.543 70.98c1.362-8.774.013-17.662-3.78-25.753 3.158-1.063 6.273-2.401 8.865-4.148 3.941-2.657 6.701-6.283 6.518-11.345l-.001-.014c-.369-4.14-3.325-6.98-6.931-9.157h-.001c-4.645-2.774-8.185-5.527-10.663-10.106l-.001-.003c-.993-1.784-1.89-3.7-2.807-5.66a79.755 79.755 0 0 1-.215-.46c-.992-2.114-2.015-4.268-3.209-6.327-2.388-4.12-5.467-7.876-10.368-10.224m22.593 83.197L413.575 72.118c.066.056.132.11.198.162-.326.258-.619.57-.904.906-.121.142-.242.29-.365.44-.355.436-.722.886-1.134 1.243m232.949-72.13h.001l-.11.225.108-.225h.001Zm0 0c-3.815-1.88-8.441-2.426-12.613-1.644-2.219.416-4.318 1.21-6.101 2.386m0 0c-2.042-1.32-4.499-2.06-7.088-2.35-4.527-.507-9.496.351-13.471 1.909m20.559.441c-.076.05-.152.101-.226.153l.452-.002c-.075-.051-.15-.101-.226-.15Zm-20.559-.441c-1.438.542-2.874 1.2-4.311 1.858l-.016.008c-1.447.662-2.896 1.325-4.365 1.882-2.938 1.113-5.934 1.792-9.095 1.186h-.005c-2.18-.377-4.24-1.06-6.298-1.743-.458-.152-.916-.304-1.375-.452-2.513-.813-5.054-1.52-7.784-1.52-3.184 0-5.543.826-7.42 2.148-1.871 1.317-3.247 3.117-4.485 5.039a85.4 85.4 0 0 0-1.385 2.248c-.732 1.216-1.463 2.429-2.288 3.582-1.326 1.851-2.867 3.499-4.971 4.633m53.798-18.87h.001l.089.234-.092-.233h.002Zm-53.798 18.87c-4.248 2.137-9.195 2.743-13.782 1.223m13.782-1.223a.013.013 0 0 0 .004-.001l.112.223-.119-.22.003-.002Zm-13.782 1.223a98.763 98.763 0 0 1-3.641-1.455l-.009-.004c-1.198-.497-2.39-.992-3.606-1.438-2.433-.894-4.968-1.598-7.869-1.754h-.014c-4.9 0-9.797 1.527-14.387 2.958l-1.459.453-.005.002c-.544.18-1.1.372-1.665.567-1.875.648-3.853 1.331-5.836 1.744-2.573.536-5.108.603-7.367-.444m45.858-.63.004.002-.087.235.079-.238.004.002Zm-45.858.63c-1.894-.978-3.784-.635-5.629.637-16.58 11.501-22.33 30.14-23.766 47.794l-.001.003c-.359 5.265-.359 10.528-.359 15.78v.004c0 .781 0 1.592-.011 2.412m29.766-66.63.005.003-.115.222.106-.227.004.002Zm-29.766 66.63a499.596 499.596 0 0 1-.567-3.379l-.001-.002h.001l-.003-.012c-1.082-4.98-3.248-9.959-6.496-14.317l-.004-.005c-6.145-7.793-16.292-12.184-26.813-7.808m33.883 25.523c.074.43.148.853.222 1.266L411.2 74.686m50.642 15.705a79.28 79.28 0 0 1-.028 1.284c-.262-1.459-.524-3.039-.785-4.619l-.001-.005c-1.076-4.946-3.226-9.892-6.453-14.22-6.094-7.729-16.131-12.057-26.527-7.729m-.089-.234c-.722.25-1.558.647-2.402 1.048-.221.104-.442.21-.662.312-1.07.5-2.108.946-2.963 1.097m6.027-2.457a.053.053 0 0 0 .007-.002l.082.236m-.089-.234-.007.003.096.231m-6.116 2.223c-.992-.006-1.831-.434-2.717-.969a46.162 46.162 0 0 1-.41-.251c-.757-.468-1.568-.968-2.507-1.24m5.634 2.46h.022v.25m-.022-.25-.021.004.043.246m-5.656-2.71c-3.342-1.276-6.66.017-9.205 2.212-.294.254-.671.743-1.085 1.3l-.254.344c-.357.483-.746 1.01-1.157 1.518-.511.633-1.047 1.226-1.581 1.658-.497.403-.964.643-1.387.679m14.669-7.711a.085.085 0 0 0 .01.004l-.09.233m.08-.237-.011-.003-.069.24m-14.589 7.474a1.573 1.573 0 0 1-.141-.273 5.253 5.253 0 0 1-.219-.658c-.132-.493-.215-1.01-.215-1.287v-.024l-.005-.024-.002-.01c-.357-1.848-.719-3.721-1.444-5.597l-.004-.01c-1.65-3.794-5.126-6.307-9.164-7.52-4.037-1.213-8.662-1.135-12.656.274m23.85 15.129a.72.72 0 0 0 .034.045 1.158 1.158 0 0 1 .139.075.42.42 0 0 1 .055.044c.01.01.025.026.039.046 1.407-.326 2.92-2.374 4.06-3.918.53-.717.979-1.325 1.3-1.602 2.51-2.164 5.736-3.4 8.962-2.164m-14.589 7.474a1.258 1.258 0 0 1-.108.005 3.83 3.83 0 0 0-.177.003c-.291-.55-.54-1.71-.54-2.227-.359-1.854-.717-3.71-1.434-5.564-3.227-7.42-13.622-9.893-21.509-7.11m-.082-.236c-5.445 1.878-9.067 5.633-11.948 9.67m11.948-9.67h.001l.081.236m-.082-.236h-.001l.083.236m-12.03 9.434c-.272.351-.543.746-.796 1.152m.796-1.152.003-.004.197.153m-.2-.149-.003.004.203.145m-.996 1.003c-.197-.43-.399-.817-.58-1.128l-.002-.004c-2.2-3.636-6.399-5.907-10.844-6.533-4.445-.626-9.184.387-12.478 3.383m23.904 4.282c.041.091.083.183.123.277.274-.45.574-.892.873-1.28m-.996 1.003-.158.26c-.215-.485-.44-.921-.638-1.263-4.302-7.11-16.49-8.965-22.943-3.091m-.165-.188c-1.039.898-1.436 1.958-1.344 2.992.091 1.024.657 1.987 1.478 2.715 1.639 1.455 4.374 2.032 6.639.241l.008-.006c1.015-.875 2.469-1.252 3.902-1.177 1.432.075 2.798.599 3.639 1.467m-14.322-6.231.002-.003.163.19m-.165-.188-.003.003.168.185m14.157 6.044c1.048 1.164 1.377 2.548 1.716 3.98.05.207.099.416.151.624.407 1.639.966 3.27 2.847 4.405 3.722 2.247 8.151.626 10.71-2.211l.01-.01.008-.012c.726-1.017 1.336-2.07 1.914-3.116.155-.28.308-.56.46-.838a62.39 62.39 0 0 1 1.266-2.245c1.2-1.992 2.608-3.809 4.888-5.17l.008-.005c1.39-.9 3.405-1.506 5.425-1.544 2.018-.038 4.002.492 5.372 1.817m-34.775 4.325-.003-.003.186-.168m-.183.171a.09.09 0 0 0 .003.003l.18-.174m34.592-4.154c1.2 1.334 1.638 3.046 1.996 4.86.044.222.086.446.129.671.303 1.591.615 3.228 1.423 4.623l.005.008.005.007c1.191 1.737 2.596 2.835 4.116 3.42 1.519.585 3.135.653 4.739.356 3.2-.591 6.377-2.632 8.729-4.97m-21.142-8.975a.348.348 0 0 1-.006-.006l.186-.168m-.18.174.006.006.174-.18m20.962 9.149-.007.006-.163-.19m.17.184.006-.006-.176-.177m16.848-9.584c-.709.245-1.531.635-2.376 1.036-1.291.612-2.635 1.25-3.718 1.437m0 0c-1.243 0-2.246-.619-3.287-1.261-.76-.47-1.541-.95-2.449-1.212m-38.357-7.42c-5.377 1.855-8.962 5.565-11.83 9.584m-24.735-3.091c-3.943 3.4 2.151 8.965 6.453 5.564 2.151-1.855 6.094-1.546 7.887.31m0 0c1.096 1.215 1.44 2.667 1.778 4.097.436 1.843.863 3.65 2.882 4.868 3.585 2.164 7.886.618 10.396-2.164.908-1.273 1.636-2.607 2.355-3.925 1.553-2.845 3.063-5.612 6.248-7.514 2.868-1.855 8.245-2.473 11.113.31m0 0c1.41 1.563 1.801 3.614 2.191 5.66.305 1.595.608 3.187 1.394 4.541 4.66 6.801 12.546 3.4 17.207-1.236"/><path fill="#fff" stroke="#fff" stroke-width=".5" d="M340.714 56.852c1.127.651 1.869 1.622 2.592 2.869.188.323.373.724.513 1.125.12.346.211.707.233 1.025a5.771 5.771 0 0 1 1.713-.032c.954.12 1.903.462 2.643 1.003.741.542 1.284 1.296 1.383 2.233l.003.026-.003.027c-.187 1.779-1.128 3.162-2.496 3.975-1.363.812-3.136 1.047-4.985.569l-.009-.003-.009-.003c-1.828-.63-3.301-1.58-4.409-2.855l-.016-.018-.012-.02c-.192-.332-.378-.817-.557-1.317a78.96 78.96 0 0 1-.182-.518 30.48 30.48 0 0 0-.35-.975 3.09 3.09 0 0 1-.272-.831l-.146.046-.013.004-.014.002c-.826.143-1.676.72-2.577 1.42-.174.134-.349.273-.526.413-.718.57-1.46 1.16-2.201 1.543-1.797.93-3.994 1.883-6.209 1.883-1.829 0-3.553-.282-5.109-.83-1.771 2.843-4.407 5.202-8.058 6.684-1.88.81-3.948.407-5.272-.653-.664-.532-1.15-1.237-1.321-2.047-.171-.813-.02-1.708.546-2.605.047-.083.041-.136.012-.191-.039-.076-.133-.172-.308-.279-.347-.21-.898-.397-1.521-.55-1.241-.306-2.654-.456-2.987-.456-1.136 0-2.269.097-3.415.196-.288.025-.577.05-.867.073-1.434.116-2.886.195-4.343.039-5.103-.316-8.744-2.836-11.641-6.271l-.007-.008c-.279-.362-.543-.72-.802-1.072-1.091-1.48-2.092-2.837-3.785-3.81-1.041-.6-2.354-.98-3.738-1.287-.599-.134-1.207-.252-1.808-.37l-.275-.054a43.362 43.362 0 0 1-2-.428h-.002c-6.086-1.544-12.531-2.779-18.985-4.016h-.001c-23.647-4.635-47.651-7.415-71.654-8.033h-.001c-10.39-.31-21.132-.31-31.871.617-3.937.463-8.218 1.156-12.137 2.424-3.922 1.268-7.461 3.105-9.929 5.842l-.003.004c-1.147 1.217-2.077 2.61-2.954 4.067-.344.573-.682 1.16-1.022 1.75-.518.901-1.042 1.81-1.596 2.685-1.851 2.92-4.13 5.6-8.149 7.019-4.39 1.577-8.41 0-12.328-1.535l-.035-.014c-1.938-.76-3.177-.652-4.017-.031-.861.636-1.384 1.867-1.741 3.56l-.001.005c-.884 3.81-.445 8.093.626 12.325 1.07 4.23 2.766 8.388 4.377 11.937l.002.005c3.565 8.303 9.632 15.693 16.782 21.859 1.165 1.005 1.442 2.584 1.016 3.972-.427 1.392-1.57 2.626-3.284 2.955-.369.07-.618.199-.785.355a1.05 1.05 0 0 0-.31.595c-.093.497.052 1.156.34 1.881.438 1.104 1.155 2.244 1.637 3.01.147.233.272.432.36.584 1.802 2.798 3.256 5.925 3.62 9.376.725 5.947-1.092 11.61-6.557 15.381-2.189 1.572-4.739 2.513-7.645 2.827l-.014.001h-.013c-.728 0-1.505-.071-2.269-.14-.375-.034-.748-.068-1.109-.092-1.117-.078-2.148-.073-2.993.218l-.02.007-.02.003c-.815.141-1.575.711-2.282 1.436-.46.47-.873.978-1.257 1.451-.213.261-.417.512-.616.741l-.004.005c-5.38 5.876-11.117 11.751-16.85 17.623-5.38 5.876-11.116 11.751-16.85 17.622l-.002.003-.004.004c-.795.777-1.597 1.553-2.4 2.33-4.642 4.493-9.334 9.035-12.988 14.024-4.79 6.578-5.503 13.613-4.168 20.595 1.336 6.991 4.724 13.916 8.128 20.251 1.124 1.943.774 4.604-1.553 5.607-3.66 1.579-6.597 1.256-10.218.007l-.009-.003-.009-.004c-.163-.07-.408-.198-.693-.347l-.146-.076a24.797 24.797 0 0 0-1.181-.583 8.171 8.171 0 0 0-1.222-.46c-.387-.103-.69-.127-.891-.069l-.008.002-.009.002c-.276.06-.566.278-.867.644-.297.361-.58.836-.845 1.352-.255.494-.49 1.016-.707 1.498l-.027.06c-.221.491-.428.948-.614 1.27-1.758 3.247-3.471 6.458-5.172 9.644-3.153 5.906-6.262 11.729-9.52 17.55-.252.577-.597 1.184-.946 1.798l-.097.171c-.387.682-.771 1.374-1.056 2.072-.567 1.391-.717 2.752.28 4.042.688.89 1.73 1.643 2.893 2.376.38.239.773.476 1.169.715.802.485 1.614.975 2.339 1.496l.001.001c2.33 1.7 4.57 3.323 6.81 4.946l.005.003c2.238 1.621 4.477 3.243 6.805 4.942.582.411 1.424 1.079 2.445 1.888.715.568 1.518 1.204 2.38 1.871 2.103 1.626 4.58 3.444 7.077 4.924 2.501 1.483 4.997 2.611 7.14 2.88 1.069.134 2.036.053 2.87-.293.83-.344 1.546-.956 2.103-1.917l.004-.008c1.35-2.16 3.934-2.211 5.794-1.248.936.484 1.724 1.238 2.11 2.153.39.926.36 1.997-.31 3.07l-.004.007-.004.006c-2.93 4.106-8.043 5.981-13.481 5.669l.013-.25c-5.947-.301-10.87-3.842-15.103-6.886L340.714 56.852Zm0 0c-1.855-1.276-4.07-1.587-6.263-1.272l-.011.001-.011.003c-1.027.241-2.223.88-3.457 1.602-.364.213-.731.433-1.101.655-.9.54-1.813 1.088-2.713 1.55-1.271.655-2.472 1.115-3.516 1.142-.517.014-.99-.079-1.414-.303-.422-.223-.811-.585-1.149-1.13-.397-.683-1.079-1.157-1.86-1.44-.783-.285-1.683-.384-2.545-.304-1.694.158-3.378 1.04-3.584 2.758-.278 1.313-.717 2.475-1.378 3.494m29.002-6.756-29.002 6.756m0 0a10.012 10.012 0 0 0-1.095-.872m1.095.872-1.095-.872m0 0c-4.384-3.462-9.491-3.448-14.875-2.83l-.002.001c-2.507.31-4.93.294-6.638-.885-.862-.594-1.559-1.417-2.228-2.302a57.43 57.43 0 0 1-.517-.698c-.485-.66-.975-1.327-1.511-1.905-3.435-4.145-8.168-5.494-13.185-6.925l-.914-.261-.006-.002c-26.186-6.806-53.089-10.827-80.348-12.373h-.003c-13.267-.619-26.895-.928-40.166-.619h-.003c-9.692.31-20.135 1.857-28.433 6.524-3.976 2.182-7.232 5.3-9.406 8.734-.46.636-.892 1.463-1.328 2.349-.129.262-.258.53-.389.8a56.343 56.343 0 0 1-.985 1.975c-.987 1.857-2.115 3.475-3.633 4.057l-.009.004c-1.006.433-1.926.365-2.825.07-.7-.23-1.37-.59-2.056-.959-.212-.114-.425-.228-.641-.34l-.008-.004-.008-.004c-2.177-.938-4.72-1.566-7.268-1.566H93.214c-4.386.316-8.044 2.837-9.878 5.999-2.548 4.394-2.903 9.636-2.227 14.842.676 5.207 2.387 10.406 4.002 14.739l.002.005c3.743 9.415 9.648 18.128 17.48 25.534-1.32 1.628-2.083 3.609-2.083 5.597 0 2.857 1.289 5.305 2.678 7.663l.499.84c1.241 2.078 2.457 4.115 2.922 6.386h-.001l.004.013c.702 2.725.342 5.715-1.727 7.798-1.21 1.192-2.412 1.636-3.713 1.823-.657.095-1.339.123-2.067.147l-.209.007c-.66.022-1.358.044-2.092.114-3.649.003-6.387 1.345-8.747 3.223-1.612 1.284-3.063 2.833-4.504 4.371a94.233 94.233 0 0 1-1.97 2.063v.001c-5.02 5.102-10.04 10.281-15.058 15.459-5.019 5.178-10.037 10.356-15.055 15.456l-.003.003c-1.574 1.652-3.26 3.323-4.976 5.024-2.757 2.731-5.591 5.54-8.16 8.47-4.176 4.763-7.702 9.899-9.15 15.675-2.91 10.795.747 21.576 5.648 31.655L310.617 62.736Z"/><mask id="a" width="9" height="6" x="55.665" y="317.599" fill="#000" maskUnits="userSpaceOnUse"><path fill="#fff" d="M55.665 317.599h9v6h-9z"/><path d="M58.816 322.308c0-.309-.359-.309-.717-.309.358.309 1.075.309 1.434.309h.358c-.717 0-1.434-.309-1.792-.309.358.309.717.619 1.075.619H61.325c.359 0 .359 0 .717-.31-.358 0-.358 0-.717.31h.359c.358 0 .358 0 .717-.31.358 0 .358-.309.717-.618.358-.309.717-.927.358-1.236 0-.31 0-.619-.358-.928 0-.309-.359-.309-.717-.618-.359-.309-.359-.309-.717-.309h-1.076c-.717 0-1.075 0-1.434.309 0 0-.358 0-.358.309-.359 0-.359.309-.717.309-.358.309-.717.928-.717 1.546.358-.309.358-.928.717-1.237l-.717.619c-.358.309-.358.927-.358 1.236v-.927c-.359.309-.359.618-.359.927 0 .309 0 .928.358 1.237h.717c.359-.309.717-.309 1.076-.619Z"/></mask><path fill="#fff" d="M58.816 322.308c0-.309-.359-.309-.717-.309.358.309 1.075.309 1.434.309h.358c-.717 0-1.434-.309-1.792-.309.358.309.717.619 1.075.619H61.325c.359 0 .359 0 .717-.31-.358 0-.358 0-.717.31h.359c.358 0 .358 0 .717-.31.358 0 .358-.309.717-.618.358-.309.717-.927.358-1.236 0-.31 0-.619-.358-.928 0-.309-.359-.309-.717-.618-.359-.309-.359-.309-.717-.309h-1.076c-.717 0-1.075 0-1.434.309 0 0-.358 0-.358.309-.359 0-.359.309-.717.309-.358.309-.717.928-.717 1.546.358-.309.358-.928.717-1.237l-.717.619c-.358.309-.358.927-.358 1.236v-.927c-.359.309-.359.618-.359.927 0 .309 0 .928.358 1.237h.717c.359-.309.717-.309 1.076-.619Z"/><path fill="#fff" d="M58.816 322.558c.275 0 .425-.131.522-.215.082-.071.112-.094.195-.094v-.5c-.275 0-.425.132-.522.216-.082.07-.112.093-.195.093v.5Zm0-.25.326.379.174-.15v-.229h-.5Zm-.717-.309v-.5h-1.345l1.018.879.327-.379Zm3.943.309.327.379 1.019-.879h-1.346v.5Zm.359 0v-.5h-.186l-.14.122.326.378Zm1.075-1.854h-.5v.229l.174.149.326-.378Zm-.358-.928h-.5v.229l.173.15.327-.379Zm-3.944-.618v.5h.186l.14-.122-.326-.378Zm-.358.309v.5h.5v-.5h-.5Zm-.717.309v-.5h-.186l-.14.121.326.379Zm-.717 1.546h-.5v1.091l.827-.713-.327-.378Zm-.358-.309h.5v-1.092l-.827.713.326.379Zm0 2.164-.327.378.14.122h.186v-.5Zm.716 0v.5h.186l.141-.122-.327-.378Zm1.576-.619a.753.753 0 0 0-.19-.513.836.836 0 0 0-.396-.238c-.217-.062-.477-.058-.631-.058v1c.093 0 .167 0 .235.004a.668.668 0 0 1 .12.015c.016.005-.025-.003-.071-.053a.284.284 0 0 1-.054-.091.206.206 0 0 1-.013-.066h1Zm-1.544.07c.291.251.679.344.973.387.309.044.611.043.788.043v-1c-.182 0-.417 0-.646-.033-.244-.035-.394-.096-.462-.154l-.653.757Zm1.76.43h.36v-1h-.36v1Zm.36-1c-.294 0-.603-.064-.912-.14-.143-.035-.306-.078-.44-.108a2.07 2.07 0 0 0-.441-.061v1c.03 0 .096.008.22.036.124.028.252.062.422.104.319.079.727.169 1.15.169v-1Zm-2.12.57c.173.149.38.328.593.466.212.137.489.274.81.274v-1c-.039 0-.12-.019-.267-.113a4.798 4.798 0 0 1-.483-.384l-.653.757Zm1.402.74H59.891v-1H59.174v1Zm.717 0h.359v-1h-.359v1Zm.359 0H60.967v-1H60.25v1Zm.717 0h.358v-1h-.358v1Zm.358 0c.145 0 .352.008.557-.08.178-.077.337-.222.487-.351l-.653-.757c-.094.08-.15.128-.193.162-.042.032-.048.033-.037.028.017-.008.028-.007.01-.005-.03.002-.073.003-.17.003v1Zm.717-1.31c-.145 0-.352-.008-.556.08-.178.077-.338.222-.487.351l.653.757c.093-.08.15-.128.193-.162.041-.032.048-.033.037-.028-.017.008-.028.007-.01.005a2.74 2.74 0 0 1 .17-.003v-1Zm-.717 1.31h.359v-1h-.359v1Zm.359 0c.145 0 .352.008.556-.08.178-.077.338-.222.487-.351l-.653-.757c-.093.08-.15.128-.193.162-.041.032-.048.033-.037.028.017-.008.028-.007.01-.005a2.74 2.74 0 0 1-.17.003v1Zm.717-.31a.888.888 0 0 0 .47-.125 1.03 1.03 0 0 0 .284-.262c.13-.169.16-.242.29-.352l-.654-.758c-.23.199-.379.436-.427.498-.032.041-.032.032-.009.018.033-.019.057-.019.046-.019v1Zm1.043-.739c.23-.198.464-.495.588-.817.12-.312.188-.817-.23-1.177l-.652.757a.086.086 0 0 1-.026-.046v.007a.43.43 0 0 1-.025.099 1.17 1.17 0 0 1-.308.419l.653.758Zm.532-1.615c0-.145.003-.37-.065-.603a1.45 1.45 0 0 0-.467-.704l-.653.758c.11.094.144.167.16.224.022.076.025.16.025.325h1Zm-.358-.928a.777.777 0 0 0-.174-.499 1.057 1.057 0 0 0-.301-.243c-.19-.109-.285-.142-.416-.255l-.653.757c.227.197.491.319.57.364.056.032.045.034.024.008a.227.227 0 0 1-.05-.132h1Zm-.89-.997c-.15-.129-.31-.274-.488-.351-.204-.088-.412-.079-.556-.079v1c.097 0 .14 0 .17.003.018.001.007.002-.01-.006-.01-.004-.004-.004.037.028.044.034.1.082.193.162l.653-.757Zm-1.044-.43H60.608v1H61.684v-1Zm-1.076 0c-.673 0-1.237-.021-1.76.43l.653.757c.193-.166.347-.187 1.107-.187v-1Zm-1.434.809v-.5H59.155l-.028.001c-.021.002-.049.004-.08.009a.997.997 0 0 0-.25.069.805.805 0 0 0-.322.245.785.785 0 0 0-.16.485h1a.22.22 0 0 1-.049.127c-.032.042-.066.058-.074.062-.008.003-.01.002-.003.002v-.001l-.005.001H59.175v-.5Zm-.358-.191a.95.95 0 0 0-.443.104c-.116.06-.203.138-.242.172-.05.043-.053.043-.049.041.016-.009.028-.008.017-.008v1a.95.95 0 0 0 .443-.104c.116-.06.203-.138.242-.172.05-.043.053-.043.049-.041-.016.009-.028.008-.017.008v-1Zm-1.044.43c-.45.389-.89 1.139-.89 1.925h1c0-.451.277-.937.544-1.167l-.654-.758Zm-.063 2.303c.29-.251.419-.611.498-.816.1-.259.151-.362.218-.42l-.653-.757c-.29.251-.419.611-.498.816-.1.259-.151.362-.218.42l.653.757Zm.063-1.993-.358.309c-.09.077-.18.154-.358.309l.653.757.358-.309.358-.309-.653-.757Zm-.716.618c-.304.261-.425.623-.479.902-.055.285-.053.562-.053.713h1c0-.158 0-.345.035-.523.036-.185.094-.287.15-.335l-.654-.757Zm.468 1.615V320.763h-1V321.69h1Zm-.827-1.306a1.452 1.452 0 0 0-.467.703c-.068.234-.065.459-.065.603h1c0-.165.003-.249.025-.324a.456.456 0 0 1 .16-.225l-.653-.757Zm-.532 1.306c0 .151-.001.428.054.713.054.279.175.641.478.902l.653-.757c-.055-.048-.114-.149-.15-.334a2.782 2.782 0 0 1-.035-.524h-1Zm.858 1.737H57.74v-1H57.023v1Zm1.044-.122c.115-.098.228-.15.41-.228.176-.077.422-.18.665-.39l-.653-.757c-.114.099-.227.15-.409.228-.177.077-.422.18-.666.39l.653.757Z" mask="url(#a)"/><path fill="#fff" stroke="#fff" stroke-width=".5" d="M67.637 325.602v.001l.004.003.229.164c2.089 1.504 4.56 3.282 7.38 3.894 2.93.944 5.856.623 8.762-.628.49-.181.947-.371 1.385-.553 1.858-.769 3.382-1.4 5.614-.678l.012.003c2.057.555 3.873 1.346 5.66 2.125.688.3 1.371.598 2.063.88 2.477 1.009 5.024 1.797 8.122 1.641.741-.001 1.478-.16 2.184-.312l.013-.003c.722-.155 1.412-.303 2.098-.303 1.206 0 2.064.295 2.891.708.319.159.63.334.958.519l.314.176c.445.248.924.504 1.474.74l-.001.001.013.004c2.544.941 5.094 1.256 7.645.941 1.202-.148 2.422-.418 3.619-.684l.202-.044c1.268-.281 2.508-.548 3.7-.662 2.374-.228 4.517.153 6.237 2.229l.001.002c1.057 1.253 1.914 2.544 2.767 3.828.295.445.59.889.892 1.33 1.17 1.708 2.442 3.355 4.264 4.77 4.384 3.465 10.57 3.769 15.647 1.896 3.03-.873 5.743-2.551 8.115-4.018l.542-.335c.282-.174.567-.345.851-.516 2.2-1.322 4.359-2.62 5.345-5.171.399-1.032.094-1.985-.595-2.664-.679-.669-1.726-1.074-2.853-1.077-3.419-.306-6.13 1.658-8.815 3.601l-.215.156c-2.788 2.016-5.584 3.964-9.243 3.663h-.005c-2.41-.149-4.053-1.479-5.374-3.188-.662-.856-1.238-1.801-1.786-2.732a72.762 72.762 0 0 1-.261-.445c-.453-.773-.894-1.527-1.352-2.184h.001l-.005-.006c-2.533-3.433-5.814-6.271-10.924-6.901-1.284-.158-2.652-.078-4.003.077-.676.078-1.352.175-2.013.272l-.183.026c-.598.088-1.183.174-1.749.243l-.012.002c-.39.067-.757.134-1.106.198-1.269.231-2.29.417-3.288.417-1.25 0-2.462-.295-4.042-1.204l-.006-.003c-1.445-.778-2.721-1.33-4.096-1.646-1.375-.317-2.836-.394-4.648-.238h-.002c-.688.066-1.323.145-1.927.22-2.26.281-4.08.507-6.575-.208-1.24-.459-2.438-1.014-3.635-1.578a51.64 51.64 0 0 1-.338-.16c-1.083-.511-2.168-1.024-3.271-1.464-2.44-.974-4.997-1.609-7.925-1.136-1.3.161-2.499.72-3.661 1.299l-.343.171c-1.052.527-2.082 1.043-3.182 1.315-1.72.294-3.366-.149-4.958-.835-.797-.344-1.573-.745-2.336-1.142l-.07-.037c-.736-.382-1.46-.759-2.164-1.062-2.16-.931-4.704-1.797-7.081-1.876-2.39-.079-4.636.638-6.132 2.895l-.004.006-.004.006a1.257 1.257 0 0 0 0 1.256c.23.395.676.665 1.292.665 3.884 0 7.058 1.216 9.887 3.35Z"/><path fill="#fff" stroke="#fff" stroke-width=".5" d="m173.578 338.321.016-.004.015-.005c6.084-2.161 11.439-3.699 18.221-4.315h.003c2.414-.245 4.771-.393 7.121-.54.611-.038 1.221-.076 1.832-.116 2.959-.194 5.925-.426 8.983-.891 10.4-1.547 20.91-4.959 25.633-13.419l.005-.011c.272-.546.52-1.111.766-1.669l.001-.003c.247-.561.491-1.116.757-1.651.532-1.07 1.141-2.04 2-2.781l.008-.007.006-.006c1.012-1.018 2.282-1.32 3.69-1.395a26.666 26.666 0 0 1 1.859-.014l.32.004c.735.01 1.483.01 2.213-.067 2.544-.003 5.092-.631 7.28-1.889v.001l.007-.004c1.225-.755 2.117-1.796 2.964-2.784l.141-.165c.899-1.046 1.765-2.012 2.968-2.605 1.219-.6 2.621-.905 4.089-1.097a54.624 54.624 0 0 1 2.592-.256 72.748 72.748 0 0 0 1.836-.168c3.6-.31 6.839-.931 10.431-1.86 1.322-.301 2.628-.623 3.925-.943 5.415-1.337 10.686-2.638 16.428-2.143l.007.001c7.835.46 14.699 3.225 21.227 6.657 2.789 1.466 5.513 3.051 8.225 4.63.463.27.926.54 1.389.808 3.171 1.841 6.337 3.642 9.573 5.193l.009.004c1.537.662 2.998.169 3.785-.764.393-.466.622-1.047.597-1.65-.026-.605-.307-1.207-.888-1.71-8.991-8.683-21.934-16.124-35.245-18.917-6.481-1.553-12.964-1.863-19.448-.931h-.003c-3.091.485-6.02 1.207-8.923 1.922-.812.2-1.622.4-2.433.594-3.715.888-7.46 1.656-11.557 1.809h-.002c-3.426.156-6.059.701-8.382 1.762-2.322 1.06-4.318 2.627-6.48 4.802-1.397 1.355-2.605 1.872-3.943 2.096-.677.113-1.391.151-2.192.18l-.443.015c-.675.023-1.41.047-2.218.11-2.899.002-5.459.628-7.66 2.209-2.382 1.581-3.75 3.791-5.005 6.034l-.416.748c-1.11 2.006-2.206 3.986-3.929 5.607l-.007.007c-3.883 3.958-9.545 5.494-15.284 6.731-3.121.538-6.558.808-10.108 1.068l-.66.049c-3.342.244-6.77.495-10.1.968-7.09 1.006-13.793 3.024-18.335 8.185-.393.344-.561.733-.483 1.129.075.378.361.688.699.917.344.233.778.408 1.218.505.439.098.902.121 1.305.035ZM669.195 53.663v-.068l-.034-.058c-.233-.402-.685-.588-1.068-.588a.948.948 0 0 0-.556.163.661.661 0 0 0-.276.538c-.358 4.014-.717 8.04-.717 12.07 0 .913-.089 1.907-.178 2.914l-.001.007c-.089 1-.18 2.013-.18 2.952V74.684c0 .218-.021.438-.043.667l-.002.02a6.724 6.724 0 0 0-.044.666c0 .438.089.883.466 1.248a.47.47 0 0 0 .219.263.757.757 0 0 0 .371.091.755.755 0 0 0 .371-.09.466.466 0 0 0 .218-.262c.352-.322.542-.657.639-1.033.098-.379.098-.793.098-1.24V71.903c0-.914.088-1.907.178-2.915l.001-.006c.088-.996.178-2.006.179-2.941.359-4.027.359-8.052.359-12.372v-.005Z"/></g></svg>